<svg width="284" height="508" viewBox="0 0 284 508" fill="none" xmlns="http://www.w3.org/2000/svg">
<g filter="url(#filter0_d_212_33)">
<rect x="15.9733" width="256.117" height="477.209" rx="40" fill="black"/>
<rect x="33.4855" y="19.7012" width="221.092" height="437.807" rx="22" fill="#5C5C5C"/>
<path d="M86.0223 17.5122L200.947 17.5122V26.308C200.947 32.9354 195.574 38.308 188.947 38.308L98.0223 38.308C91.3949 38.308 86.0223 32.9354 86.0223 26.308V17.5122Z" fill="black"/>
<rect x="123.236" y="22.9849" width="40.4971" height="5.47258" rx="2.73629" fill="#C4C4C4"/>
<circle cx="180.698" cy="25.7209" r="3.83081" fill="#C4C4C4"/>
</g>
<rect x="3" y="144.532" width="281" height="116" rx="15" fill="#BEBCBC"/>
<path d="M3 159.532C3 151.248 9.71573 144.532 18 144.532H269C277.284 144.532 284 151.248 284 159.532V180.532H3V159.532Z" fill="#D9D9D9"/>
<rect x="20" y="150.532" width="24" height="24" rx="5" fill="url(#paint0_linear_212_33)"/>
<path fill-rule="evenodd" clip-rule="evenodd" d="M32.2069 169.433C36.9744 169.433 40.8392 166.231 40.8392 162.28C40.8392 158.33 36.9744 155.128 32.2069 155.128C27.4393 155.128 23.5745 158.33 23.5745 162.28C23.5745 164.12 24.4128 165.798 25.7903 167.065L24.4243 169.937L27.6964 168.38C29.009 169.048 30.5536 169.433 32.2069 169.433Z" fill="#EDEDED"/>
<path d="M56.791 158.868H58.1606L61.6543 167.562L65.1406 158.868H66.5176L62.1816 169.532H61.1123L56.791 158.868ZM56.3442 158.868H57.5527L57.7505 165.372V169.532H56.3442V158.868ZM65.7485 158.868H66.957V169.532H65.5508V165.372L65.7485 158.868ZM76.2148 168.382V169.532H70.5679V168.382H76.2148ZM70.8535 158.868V169.532H69.4399V158.868H70.8535ZM75.4678 163.453V164.603H70.5679V163.453H75.4678ZM76.1416 158.868V160.025H70.5679V158.868H76.1416ZM83.6489 166.837C83.6489 166.588 83.6099 166.368 83.5317 166.178C83.4585 165.982 83.3267 165.807 83.1362 165.65C82.9507 165.494 82.6919 165.345 82.3599 165.204C82.0327 165.062 81.6177 164.918 81.1147 164.771C80.5874 164.615 80.1113 164.442 79.6865 164.251C79.2617 164.056 78.8979 163.834 78.5952 163.585C78.2925 163.336 78.0605 163.05 77.8994 162.728C77.7383 162.406 77.6577 162.037 77.6577 161.622C77.6577 161.207 77.7432 160.824 77.9141 160.472C78.085 160.121 78.3291 159.815 78.6465 159.557C78.9688 159.293 79.3521 159.088 79.7964 158.941C80.2407 158.795 80.7363 158.722 81.2832 158.722C82.084 158.722 82.7627 158.875 83.3193 159.183C83.8809 159.486 84.3081 159.884 84.6011 160.377C84.894 160.865 85.0405 161.388 85.0405 161.944H83.6343C83.6343 161.544 83.5488 161.19 83.3779 160.882C83.207 160.57 82.9482 160.326 82.6016 160.15C82.2549 159.969 81.8154 159.879 81.2832 159.879C80.7803 159.879 80.3652 159.955 80.0381 160.106C79.7109 160.257 79.4668 160.462 79.3057 160.721C79.1494 160.98 79.0713 161.275 79.0713 161.607C79.0713 161.832 79.1177 162.037 79.2104 162.223C79.3081 162.403 79.457 162.572 79.6572 162.728C79.8623 162.884 80.1211 163.028 80.4336 163.16C80.751 163.292 81.1294 163.419 81.5688 163.541C82.1743 163.712 82.6968 163.902 83.1362 164.112C83.5757 164.322 83.937 164.559 84.2202 164.823C84.5083 165.082 84.7207 165.377 84.8574 165.709C84.999 166.036 85.0698 166.407 85.0698 166.822C85.0698 167.257 84.9819 167.65 84.8062 168.001C84.6304 168.353 84.3789 168.653 84.0518 168.902C83.7246 169.151 83.3315 169.344 82.8726 169.481C82.4185 169.613 81.9106 169.679 81.3491 169.679C80.856 169.679 80.3701 169.61 79.8916 169.474C79.418 169.337 78.9858 169.132 78.5952 168.858C78.2095 168.585 77.8994 168.248 77.665 167.848C77.4355 167.442 77.3208 166.974 77.3208 166.441H78.7271C78.7271 166.808 78.7979 167.123 78.9395 167.386C79.0811 167.645 79.2739 167.86 79.5181 168.031C79.7671 168.202 80.0479 168.329 80.3604 168.412C80.6777 168.49 81.0073 168.529 81.3491 168.529C81.8423 168.529 82.2598 168.46 82.6016 168.324C82.9434 168.187 83.2021 167.992 83.3779 167.738C83.5586 167.484 83.6489 167.184 83.6489 166.837ZM92.5552 166.837C92.5552 166.588 92.5161 166.368 92.438 166.178C92.3647 165.982 92.2329 165.807 92.0425 165.65C91.8569 165.494 91.5981 165.345 91.2661 165.204C90.939 165.062 90.5239 164.918 90.021 164.771C89.4937 164.615 89.0176 164.442 88.5928 164.251C88.168 164.056 87.8042 163.834 87.5015 163.585C87.1987 163.336 86.9668 163.05 86.8057 162.728C86.6445 162.406 86.564 162.037 86.564 161.622C86.564 161.207 86.6494 160.824 86.8203 160.472C86.9912 160.121 87.2354 159.815 87.5527 159.557C87.875 159.293 88.2583 159.088 88.7026 158.941C89.147 158.795 89.6426 158.722 90.1895 158.722C90.9902 158.722 91.6689 158.875 92.2256 159.183C92.7871 159.486 93.2144 159.884 93.5073 160.377C93.8003 160.865 93.9468 161.388 93.9468 161.944H92.5405C92.5405 161.544 92.4551 161.19 92.2842 160.882C92.1133 160.57 91.8545 160.326 91.5078 160.15C91.1611 159.969 90.7217 159.879 90.1895 159.879C89.6865 159.879 89.2715 159.955 88.9443 160.106C88.6172 160.257 88.373 160.462 88.2119 160.721C88.0557 160.98 87.9775 161.275 87.9775 161.607C87.9775 161.832 88.0239 162.037 88.1167 162.223C88.2144 162.403 88.3633 162.572 88.5635 162.728C88.7686 162.884 89.0273 163.028 89.3398 163.16C89.6572 163.292 90.0356 163.419 90.4751 163.541C91.0806 163.712 91.603 163.902 92.0425 164.112C92.4819 164.322 92.8433 164.559 93.1265 164.823C93.4146 165.082 93.627 165.377 93.7637 165.709C93.9053 166.036 93.9761 166.407 93.9761 166.822C93.9761 167.257 93.8882 167.65 93.7124 168.001C93.5366 168.353 93.2852 168.653 92.958 168.902C92.6309 169.151 92.2378 169.344 91.7788 169.481C91.3247 169.613 90.8169 169.679 90.2554 169.679C89.7622 169.679 89.2764 169.61 88.7979 169.474C88.3242 169.337 87.8921 169.132 87.5015 168.858C87.1157 168.585 86.8057 168.248 86.5713 167.848C86.3418 167.442 86.2271 166.974 86.2271 166.441H87.6333C87.6333 166.808 87.7041 167.123 87.8457 167.386C87.9873 167.645 88.1802 167.86 88.4243 168.031C88.6733 168.202 88.9541 168.329 89.2666 168.412C89.584 168.49 89.9136 168.529 90.2554 168.529C90.7485 168.529 91.166 168.46 91.5078 168.324C91.8496 168.187 92.1084 167.992 92.2842 167.738C92.4648 167.484 92.5552 167.184 92.5552 166.837ZM99.7256 159.813L96.1953 169.532H94.7524L98.8174 158.868H99.7476L99.7256 159.813ZM102.685 169.532L99.147 159.813L99.125 158.868H100.055L104.135 169.532H102.685ZM102.501 165.584V166.742H96.5103V165.584H102.501ZM113.356 164.222V168.126C113.224 168.321 113.014 168.541 112.726 168.785C112.438 169.024 112.04 169.234 111.532 169.415C111.029 169.591 110.38 169.679 109.584 169.679C108.935 169.679 108.336 169.566 107.79 169.342C107.248 169.112 106.776 168.78 106.376 168.346C105.98 167.906 105.673 167.374 105.453 166.749C105.238 166.119 105.131 165.406 105.131 164.61V163.783C105.131 162.987 105.224 162.276 105.409 161.651C105.6 161.026 105.878 160.497 106.244 160.062C106.61 159.623 107.06 159.291 107.592 159.066C108.124 158.836 108.734 158.722 109.423 158.722C110.238 158.722 110.919 158.863 111.466 159.146C112.018 159.425 112.448 159.811 112.755 160.304C113.068 160.797 113.268 161.358 113.356 161.988H111.942C111.879 161.603 111.752 161.251 111.562 160.934C111.376 160.616 111.11 160.362 110.763 160.172C110.417 159.977 109.97 159.879 109.423 159.879C108.93 159.879 108.502 159.969 108.141 160.15C107.78 160.331 107.482 160.589 107.248 160.926C107.013 161.263 106.837 161.671 106.72 162.149C106.608 162.628 106.552 163.167 106.552 163.768V164.61C106.552 165.226 106.623 165.775 106.764 166.258C106.911 166.742 107.118 167.154 107.387 167.496C107.655 167.833 107.975 168.089 108.346 168.265C108.722 168.441 109.137 168.529 109.591 168.529C110.094 168.529 110.502 168.487 110.814 168.404C111.127 168.316 111.371 168.214 111.547 168.097C111.723 167.975 111.857 167.86 111.95 167.752V165.365H109.481V164.222H113.356ZM122.475 168.382V169.532H116.828V168.382H122.475ZM117.113 158.868V169.532H115.7V158.868H117.113ZM121.728 163.453V164.603H116.828V163.453H121.728ZM122.401 158.868V160.025H116.828V158.868H122.401ZM129.909 166.837C129.909 166.588 129.87 166.368 129.792 166.178C129.718 165.982 129.586 165.807 129.396 165.65C129.21 165.494 128.952 165.345 128.62 165.204C128.292 165.062 127.877 164.918 127.375 164.771C126.847 164.615 126.371 164.442 125.946 164.251C125.521 164.056 125.158 163.834 124.855 163.585C124.552 163.336 124.32 163.05 124.159 162.728C123.998 162.406 123.917 162.037 123.917 161.622C123.917 161.207 124.003 160.824 124.174 160.472C124.345 160.121 124.589 159.815 124.906 159.557C125.229 159.293 125.612 159.088 126.056 158.941C126.5 158.795 126.996 158.722 127.543 158.722C128.344 158.722 129.022 158.875 129.579 159.183C130.141 159.486 130.568 159.884 130.861 160.377C131.154 160.865 131.3 161.388 131.3 161.944H129.894C129.894 161.544 129.809 161.19 129.638 160.882C129.467 160.57 129.208 160.326 128.861 160.15C128.515 159.969 128.075 159.879 127.543 159.879C127.04 159.879 126.625 159.955 126.298 160.106C125.971 160.257 125.727 160.462 125.565 160.721C125.409 160.98 125.331 161.275 125.331 161.607C125.331 161.832 125.377 162.037 125.47 162.223C125.568 162.403 125.717 162.572 125.917 162.728C126.122 162.884 126.381 163.028 126.693 163.16C127.011 163.292 127.389 163.419 127.829 163.541C128.434 163.712 128.957 163.902 129.396 164.112C129.835 164.322 130.197 164.559 130.48 164.823C130.768 165.082 130.98 165.377 131.117 165.709C131.259 166.036 131.33 166.407 131.33 166.822C131.33 167.257 131.242 167.65 131.066 168.001C130.89 168.353 130.639 168.653 130.312 168.902C129.984 169.151 129.591 169.344 129.132 169.481C128.678 169.613 128.17 169.679 127.609 169.679C127.116 169.679 126.63 169.61 126.151 169.474C125.678 169.337 125.246 169.132 124.855 168.858C124.469 168.585 124.159 168.248 123.925 167.848C123.695 167.442 123.581 166.974 123.581 166.441H124.987C124.987 166.808 125.058 167.123 125.199 167.386C125.341 167.645 125.534 167.86 125.778 168.031C126.027 168.202 126.308 168.329 126.62 168.412C126.938 168.49 127.267 168.529 127.609 168.529C128.102 168.529 128.52 168.46 128.861 168.324C129.203 168.187 129.462 167.992 129.638 167.738C129.818 167.484 129.909 167.184 129.909 166.837Z" fill="#737373"/>
<path d="M245.825 163.299V169.532H244.47V161.607H245.752L245.825 163.299ZM245.503 165.27L244.939 165.248C244.944 164.706 245.024 164.205 245.181 163.746C245.337 163.282 245.557 162.879 245.84 162.538C246.123 162.196 246.46 161.932 246.851 161.747C247.246 161.556 247.683 161.461 248.162 161.461C248.552 161.461 248.904 161.515 249.216 161.622C249.529 161.725 249.795 161.891 250.015 162.12C250.239 162.35 250.41 162.647 250.527 163.014C250.645 163.375 250.703 163.817 250.703 164.339V169.532H249.341V164.325C249.341 163.91 249.28 163.578 249.158 163.329C249.036 163.075 248.857 162.892 248.623 162.779C248.389 162.662 248.101 162.604 247.759 162.604C247.422 162.604 247.114 162.674 246.836 162.816C246.562 162.958 246.326 163.153 246.125 163.402C245.93 163.651 245.776 163.937 245.664 164.259C245.557 164.576 245.503 164.913 245.503 165.27ZM252.402 165.658V165.489C252.402 164.918 252.485 164.388 252.651 163.9C252.817 163.407 253.057 162.979 253.369 162.618C253.682 162.252 254.06 161.969 254.504 161.769C254.949 161.563 255.447 161.461 255.999 161.461C256.555 161.461 257.056 161.563 257.5 161.769C257.949 161.969 258.33 162.252 258.643 162.618C258.96 162.979 259.202 163.407 259.368 163.9C259.534 164.388 259.617 164.918 259.617 165.489V165.658C259.617 166.229 259.534 166.759 259.368 167.247C259.202 167.735 258.96 168.163 258.643 168.529C258.33 168.89 257.952 169.173 257.507 169.378C257.068 169.579 256.57 169.679 256.013 169.679C255.457 169.679 254.956 169.579 254.512 169.378C254.067 169.173 253.687 168.89 253.369 168.529C253.057 168.163 252.817 167.735 252.651 167.247C252.485 166.759 252.402 166.229 252.402 165.658ZM253.757 165.489V165.658C253.757 166.053 253.804 166.427 253.896 166.778C253.989 167.125 254.128 167.433 254.314 167.701C254.504 167.97 254.741 168.182 255.024 168.338C255.308 168.49 255.637 168.565 256.013 168.565C256.384 168.565 256.709 168.49 256.987 168.338C257.271 168.182 257.505 167.97 257.69 167.701C257.876 167.433 258.015 167.125 258.108 166.778C258.206 166.427 258.254 166.053 258.254 165.658V165.489C258.254 165.099 258.206 164.73 258.108 164.383C258.015 164.032 257.874 163.722 257.683 163.453C257.498 163.18 257.263 162.965 256.98 162.809C256.702 162.652 256.375 162.574 255.999 162.574C255.627 162.574 255.3 162.652 255.017 162.809C254.739 162.965 254.504 163.18 254.314 163.453C254.128 163.722 253.989 164.032 253.896 164.383C253.804 164.73 253.757 165.099 253.757 165.489ZM263.323 168.126L265.359 161.607H266.252L266.077 162.904L264.004 169.532H263.132L263.323 168.126ZM261.953 161.607L263.689 168.199L263.813 169.532H262.898L260.598 161.607H261.953ZM268.201 168.148L269.856 161.607H271.204L268.904 169.532H267.996L268.201 168.148ZM266.45 161.607L268.442 168.016L268.669 169.532H267.805L265.674 162.889L265.498 161.607H266.45Z" fill="#737373"/>
<path d="M29.3735 199.295V191.868H31.3877V199.295C31.3877 200.003 31.2339 200.611 30.9263 201.119C30.6187 201.622 30.1987 202.007 29.6665 202.276C29.1343 202.544 28.5337 202.679 27.8647 202.679C27.1763 202.679 26.5659 202.564 26.0337 202.334C25.5015 202.1 25.084 201.744 24.7812 201.265C24.4834 200.787 24.3345 200.179 24.3345 199.441H26.356C26.356 199.842 26.417 200.164 26.5391 200.408C26.6611 200.652 26.8345 200.828 27.0591 200.936C27.2886 201.043 27.5571 201.097 27.8647 201.097C28.1626 201.097 28.4238 201.028 28.6484 200.892C28.8779 200.75 29.0562 200.545 29.1831 200.276C29.3101 200.008 29.3735 199.681 29.3735 199.295ZM37.606 200.848V197.193C37.606 196.924 37.5596 196.692 37.4668 196.497C37.374 196.302 37.2324 196.15 37.042 196.043C36.8516 195.936 36.6099 195.882 36.3169 195.882C36.0581 195.882 35.8311 195.926 35.6357 196.014C35.4453 196.102 35.2988 196.226 35.1963 196.387C35.0938 196.543 35.0425 196.724 35.0425 196.929H33.1016C33.1016 196.602 33.1797 196.292 33.3359 195.999C33.4922 195.701 33.7144 195.438 34.0024 195.208C34.2954 194.974 34.6445 194.791 35.0498 194.659C35.46 194.527 35.9189 194.461 36.4268 194.461C37.0273 194.461 37.562 194.563 38.0308 194.769C38.5044 194.969 38.8755 195.271 39.144 195.677C39.4175 196.082 39.5542 196.592 39.5542 197.208V200.665C39.5542 201.06 39.5786 201.399 39.6274 201.683C39.6812 201.961 39.7593 202.203 39.8618 202.408V202.532H37.8916C37.7988 202.332 37.728 202.078 37.6792 201.771C37.6304 201.458 37.606 201.15 37.606 200.848ZM37.877 197.706L37.8916 198.855H36.6685C36.3657 198.855 36.0996 198.887 35.8701 198.951C35.6406 199.009 35.4526 199.097 35.3062 199.214C35.1597 199.327 35.0498 199.463 34.9766 199.625C34.9033 199.781 34.8667 199.959 34.8667 200.159C34.8667 200.354 34.9106 200.53 34.9985 200.687C35.0913 200.843 35.2231 200.967 35.394 201.06C35.5698 201.148 35.7749 201.192 36.0093 201.192C36.3511 201.192 36.6489 201.124 36.9028 200.987C37.1567 200.845 37.3545 200.674 37.4961 200.474C37.6377 200.274 37.7134 200.083 37.7231 199.903L38.2798 200.738C38.2114 200.938 38.1089 201.15 37.9722 201.375C37.8354 201.6 37.6597 201.81 37.4448 202.005C37.23 202.2 36.9712 202.361 36.6685 202.488C36.3657 202.615 36.0142 202.679 35.6138 202.679C35.1011 202.679 34.6421 202.576 34.2368 202.371C33.8315 202.166 33.5117 201.885 33.2773 201.529C33.043 201.172 32.9258 200.767 32.9258 200.313C32.9258 199.893 33.0039 199.522 33.1602 199.2C33.3164 198.877 33.5483 198.606 33.856 198.387C34.1636 198.162 34.5444 197.994 34.9985 197.881C35.4575 197.764 35.9824 197.706 36.5732 197.706H37.877ZM46.0508 200.848V191.282H47.999V202.532H46.2412L46.0508 200.848ZM40.9604 198.665V198.511C40.9604 197.906 41.0288 197.356 41.1655 196.863C41.3071 196.365 41.5122 195.938 41.7808 195.582C42.0493 195.225 42.374 194.949 42.7549 194.754C43.1406 194.559 43.5776 194.461 44.0659 194.461C44.5396 194.461 44.9521 194.556 45.3037 194.747C45.6602 194.937 45.9629 195.208 46.2119 195.56C46.4658 195.911 46.6685 196.329 46.8198 196.812C46.9712 197.291 47.0811 197.818 47.1494 198.394V198.812C47.0811 199.373 46.9712 199.888 46.8198 200.357C46.6685 200.826 46.4658 201.236 46.2119 201.587C45.9629 201.934 45.6602 202.203 45.3037 202.393C44.9473 202.583 44.5298 202.679 44.0513 202.679C43.5679 202.679 43.1333 202.579 42.7476 202.378C42.3667 202.178 42.042 201.897 41.7734 201.536C41.5098 201.175 41.3071 200.75 41.1655 200.262C41.0288 199.773 40.9604 199.241 40.9604 198.665ZM42.9014 198.511V198.665C42.9014 199.007 42.9307 199.327 42.9893 199.625C43.0479 199.922 43.1431 200.186 43.2749 200.416C43.4067 200.64 43.5752 200.816 43.7803 200.943C43.9902 201.07 44.2441 201.133 44.542 201.133C44.9229 201.133 45.2354 201.05 45.4795 200.884C45.7285 200.713 45.9214 200.481 46.0581 200.188C46.1948 199.891 46.2827 199.556 46.3218 199.185V198.035C46.3022 197.742 46.251 197.471 46.168 197.222C46.0898 196.973 45.9775 196.758 45.8311 196.578C45.6895 196.397 45.5137 196.255 45.3037 196.153C45.0938 196.05 44.8447 195.999 44.5566 195.999C44.2588 195.999 44.0049 196.065 43.7949 196.197C43.585 196.324 43.4141 196.502 43.2822 196.731C43.1504 196.961 43.0527 197.227 42.9893 197.53C42.9307 197.833 42.9014 198.16 42.9014 198.511ZM53.3091 202.679C52.7085 202.679 52.1689 202.581 51.6904 202.386C51.2119 202.19 50.8042 201.919 50.4673 201.573C50.1353 201.221 49.8789 200.813 49.6982 200.35C49.5225 199.881 49.4346 199.378 49.4346 198.841V198.548C49.4346 197.938 49.5225 197.383 49.6982 196.885C49.874 196.382 50.123 195.95 50.4453 195.589C50.7676 195.228 51.1533 194.949 51.6025 194.754C52.0518 194.559 52.5474 194.461 53.0894 194.461C53.6509 194.461 54.1465 194.556 54.5762 194.747C55.0059 194.932 55.3647 195.196 55.6528 195.538C55.9409 195.879 56.1582 196.29 56.3047 196.768C56.4512 197.242 56.5244 197.767 56.5244 198.343V199.156H50.3135V197.823H54.6201V197.676C54.6104 197.369 54.5518 197.088 54.4443 196.834C54.3369 196.575 54.1709 196.37 53.9463 196.219C53.7217 196.062 53.4312 195.984 53.0747 195.984C52.7866 195.984 52.5352 196.048 52.3203 196.175C52.1104 196.297 51.9346 196.473 51.793 196.702C51.6562 196.927 51.5537 197.195 51.4854 197.508C51.417 197.82 51.3828 198.167 51.3828 198.548V198.841C51.3828 199.173 51.4268 199.48 51.5146 199.764C51.6074 200.047 51.7417 200.293 51.9175 200.503C52.0981 200.708 52.313 200.87 52.562 200.987C52.8159 201.099 53.104 201.155 53.4263 201.155C53.8315 201.155 54.1978 201.077 54.5249 200.921C54.8569 200.76 55.145 200.523 55.3892 200.21L56.3633 201.221C56.1973 201.465 55.9727 201.7 55.6895 201.924C55.4111 202.149 55.0742 202.332 54.6787 202.474C54.2832 202.61 53.8267 202.679 53.3091 202.679ZM65.9434 193.487L62.9038 202.532H60.7725L64.7568 191.868H66.1191L65.9434 193.487ZM68.4849 202.532L65.4307 193.487L65.2476 191.868H66.6172L70.6235 202.532H68.4849ZM68.3457 198.57V200.159H62.6255V198.57H68.3457ZM76.2046 200.65V194.607H78.1528V202.532H76.3218L76.2046 200.65ZM76.4536 199.009L77.0542 198.995C77.0542 199.527 76.9956 200.018 76.8784 200.467C76.7612 200.916 76.5781 201.307 76.3291 201.639C76.085 201.966 75.7749 202.222 75.3989 202.408C75.0229 202.588 74.5786 202.679 74.0659 202.679C73.6753 202.679 73.3188 202.625 72.9966 202.518C72.6743 202.405 72.396 202.232 72.1616 201.998C71.9321 201.758 71.7539 201.453 71.627 201.082C71.5 200.706 71.4365 200.254 71.4365 199.727V194.607H73.3701V199.742C73.3701 200.005 73.3994 200.225 73.458 200.401C73.5215 200.577 73.6069 200.721 73.7144 200.833C73.8267 200.94 73.9561 201.019 74.1025 201.067C74.2539 201.111 74.415 201.133 74.5859 201.133C75.0547 201.133 75.4233 201.041 75.6919 200.855C75.9653 200.665 76.1606 200.411 76.2778 200.093C76.395 199.771 76.4536 199.41 76.4536 199.009Z" fill="black"/>
<path d="M33.4482 218.863V219.537C33.4482 220.338 33.3481 221.056 33.1479 221.69C32.9478 222.325 32.6597 222.865 32.2837 223.309C31.9077 223.753 31.4561 224.093 30.9287 224.327C30.4062 224.562 29.8203 224.679 29.1709 224.679C28.541 224.679 27.9624 224.562 27.4351 224.327C26.9126 224.093 26.4585 223.753 26.0728 223.309C25.6919 222.865 25.3965 222.325 25.1865 221.69C24.9766 221.056 24.8716 220.338 24.8716 219.537V218.863C24.8716 218.062 24.9741 217.347 25.1792 216.717C25.3892 216.083 25.6846 215.543 26.0654 215.099C26.4463 214.649 26.8979 214.308 27.4204 214.073C27.9478 213.839 28.5264 213.722 29.1562 213.722C29.8057 213.722 30.3916 213.839 30.9141 214.073C31.4414 214.308 31.8931 214.649 32.269 215.099C32.6499 215.543 32.9404 216.083 33.1406 216.717C33.3457 217.347 33.4482 218.062 33.4482 218.863ZM32.0493 219.537V218.849C32.0493 218.214 31.9834 217.652 31.8516 217.164C31.7246 216.676 31.5366 216.266 31.2876 215.934C31.0386 215.602 30.7334 215.35 30.3721 215.179C30.0156 215.008 29.6104 214.923 29.1562 214.923C28.7168 214.923 28.3188 215.008 27.9624 215.179C27.6108 215.35 27.3081 215.602 27.0542 215.934C26.8052 216.266 26.6123 216.676 26.4756 217.164C26.3389 217.652 26.2705 218.214 26.2705 218.849V219.537C26.2705 220.177 26.3389 220.743 26.4756 221.236C26.6123 221.725 26.8076 222.137 27.0615 222.474C27.3203 222.806 27.6255 223.058 27.9771 223.229C28.3335 223.399 28.7314 223.485 29.1709 223.485C29.6299 223.485 30.0376 223.399 30.394 223.229C30.7505 223.058 31.0508 222.806 31.2949 222.474C31.5439 222.137 31.7319 221.725 31.8589 221.236C31.9858 220.743 32.0493 220.177 32.0493 219.537ZM36.7148 218.299V224.532H35.3599V216.607H36.6416L36.7148 218.299ZM36.3926 220.27L35.8286 220.248C35.8335 219.706 35.9141 219.205 36.0703 218.746C36.2266 218.282 36.4463 217.879 36.7295 217.538C37.0127 217.196 37.3496 216.932 37.7402 216.747C38.1357 216.556 38.5728 216.461 39.0513 216.461C39.4419 216.461 39.7935 216.515 40.106 216.622C40.4185 216.725 40.6846 216.891 40.9043 217.12C41.1289 217.35 41.2998 217.647 41.417 218.014C41.5342 218.375 41.5928 218.817 41.5928 219.339V224.532H40.2305V219.325C40.2305 218.91 40.1694 218.578 40.0474 218.329C39.9253 218.075 39.7471 217.892 39.5127 217.779C39.2783 217.662 38.9902 217.604 38.6484 217.604C38.3115 217.604 38.0039 217.674 37.7256 217.816C37.4521 217.958 37.2153 218.153 37.0151 218.402C36.8198 218.651 36.666 218.937 36.5537 219.259C36.4463 219.576 36.3926 219.913 36.3926 220.27ZM46.9395 224.679C46.3877 224.679 45.8872 224.586 45.438 224.4C44.9937 224.21 44.6104 223.944 44.2881 223.602C43.9707 223.26 43.7266 222.855 43.5557 222.386C43.3848 221.917 43.2993 221.405 43.2993 220.848V220.541C43.2993 219.896 43.3945 219.322 43.585 218.819C43.7754 218.312 44.0342 217.882 44.3613 217.53C44.6885 217.179 45.0596 216.913 45.4746 216.732C45.8896 216.551 46.3193 216.461 46.7637 216.461C47.3301 216.461 47.8184 216.559 48.2285 216.754C48.6436 216.949 48.9829 217.223 49.2466 217.574C49.5103 217.921 49.7056 218.331 49.8325 218.805C49.9595 219.273 50.0229 219.786 50.0229 220.343V220.951H44.105V219.845H48.668V219.742C48.6484 219.391 48.5752 219.049 48.4482 218.717C48.3262 218.385 48.1309 218.111 47.8623 217.896C47.5938 217.682 47.2275 217.574 46.7637 217.574C46.4561 217.574 46.1729 217.64 45.9141 217.772C45.6553 217.899 45.4331 218.089 45.2476 218.343C45.062 218.597 44.918 218.907 44.8154 219.273C44.7129 219.64 44.6616 220.062 44.6616 220.541V220.848C44.6616 221.224 44.7129 221.578 44.8154 221.91C44.9229 222.237 45.0767 222.525 45.2769 222.774C45.4819 223.023 45.7285 223.219 46.0166 223.36C46.3096 223.502 46.6416 223.573 47.0127 223.573C47.4912 223.573 47.8965 223.475 48.2285 223.28C48.5605 223.084 48.8511 222.823 49.1001 222.496L49.9204 223.148C49.7495 223.407 49.5322 223.653 49.2686 223.888C49.0049 224.122 48.6802 224.312 48.2944 224.459C47.9136 224.605 47.4619 224.679 46.9395 224.679ZM56.6807 218.299V224.532H55.3257V216.607H56.6074L56.6807 218.299ZM56.3584 220.27L55.7944 220.248C55.7993 219.706 55.8799 219.205 56.0361 218.746C56.1924 218.282 56.4121 217.879 56.6953 217.538C56.9785 217.196 57.3154 216.932 57.7061 216.747C58.1016 216.556 58.5386 216.461 59.0171 216.461C59.4077 216.461 59.7593 216.515 60.0718 216.622C60.3843 216.725 60.6504 216.891 60.8701 217.12C61.0947 217.35 61.2656 217.647 61.3828 218.014C61.5 218.375 61.5586 218.817 61.5586 219.339V224.532H60.1963V219.325C60.1963 218.91 60.1353 218.578 60.0132 218.329C59.8911 218.075 59.7129 217.892 59.4785 217.779C59.2441 217.662 58.9561 217.604 58.6143 217.604C58.2773 217.604 57.9697 217.674 57.6914 217.816C57.418 217.958 57.1812 218.153 56.981 218.402C56.7856 218.651 56.6318 218.937 56.5195 219.259C56.4121 219.576 56.3584 219.913 56.3584 220.27ZM66.9053 224.679C66.3535 224.679 65.853 224.586 65.4038 224.4C64.9595 224.21 64.5762 223.944 64.2539 223.602C63.9365 223.26 63.6924 222.855 63.5215 222.386C63.3506 221.917 63.2651 221.405 63.2651 220.848V220.541C63.2651 219.896 63.3604 219.322 63.5508 218.819C63.7412 218.312 64 217.882 64.3271 217.53C64.6543 217.179 65.0254 216.913 65.4404 216.732C65.8555 216.551 66.2852 216.461 66.7295 216.461C67.2959 216.461 67.7842 216.559 68.1943 216.754C68.6094 216.949 68.9487 217.223 69.2124 217.574C69.4761 217.921 69.6714 218.331 69.7983 218.805C69.9253 219.273 69.9888 219.786 69.9888 220.343V220.951H64.0708V219.845H68.6338V219.742C68.6143 219.391 68.541 219.049 68.4141 218.717C68.292 218.385 68.0967 218.111 67.8281 217.896C67.5596 217.682 67.1934 217.574 66.7295 217.574C66.4219 217.574 66.1387 217.64 65.8799 217.772C65.6211 217.899 65.3989 218.089 65.2134 218.343C65.0278 218.597 64.8838 218.907 64.7812 219.273C64.6787 219.64 64.6274 220.062 64.6274 220.541V220.848C64.6274 221.224 64.6787 221.578 64.7812 221.91C64.8887 222.237 65.0425 222.525 65.2427 222.774C65.4478 223.023 65.6943 223.219 65.9824 223.36C66.2754 223.502 66.6074 223.573 66.9785 223.573C67.457 223.573 67.8623 223.475 68.1943 223.28C68.5264 223.084 68.8169 222.823 69.0659 222.496L69.8862 223.148C69.7153 223.407 69.498 223.653 69.2344 223.888C68.9707 224.122 68.646 224.312 68.2603 224.459C67.8794 224.605 67.4277 224.679 66.9053 224.679ZM73.5776 223.126L75.6138 216.607H76.5073L76.3315 217.904L74.2588 224.532H73.3872L73.5776 223.126ZM72.208 216.607L73.9438 223.199L74.0684 224.532H73.1528L70.853 216.607H72.208ZM78.4556 223.148L80.1108 216.607H81.4585L79.1587 224.532H78.2505L78.4556 223.148ZM76.7051 216.607L78.6973 223.016L78.9243 224.532H78.0601L75.9287 217.889L75.7529 216.607H76.7051ZM87.9185 218.182V224.532H86.5562V216.607H87.8452L87.9185 218.182ZM87.6401 220.27L87.0103 220.248C87.0151 219.706 87.0859 219.205 87.2227 218.746C87.3594 218.282 87.562 217.879 87.8306 217.538C88.0991 217.196 88.4336 216.932 88.834 216.747C89.2344 216.556 89.6982 216.461 90.2256 216.461C90.5967 216.461 90.9385 216.515 91.251 216.622C91.5635 216.725 91.8345 216.888 92.064 217.113C92.2935 217.337 92.4717 217.625 92.5986 217.977C92.7256 218.329 92.7891 218.753 92.7891 219.251V224.532H91.4341V219.317C91.4341 218.902 91.3633 218.57 91.2217 218.321C91.085 218.072 90.8896 217.892 90.6357 217.779C90.3818 217.662 90.084 217.604 89.7422 217.604C89.3418 217.604 89.0073 217.674 88.7388 217.816C88.4702 217.958 88.2554 218.153 88.0942 218.402C87.9331 218.651 87.8159 218.937 87.7427 219.259C87.6743 219.576 87.6401 219.913 87.6401 220.27ZM92.7744 219.522L91.8662 219.801C91.8711 219.366 91.9419 218.949 92.0786 218.548C92.2202 218.148 92.4229 217.792 92.6865 217.479C92.9551 217.167 93.2847 216.92 93.6753 216.739C94.0659 216.554 94.5127 216.461 95.0156 216.461C95.4404 216.461 95.8164 216.517 96.1436 216.629C96.4756 216.742 96.7539 216.915 96.9785 217.149C97.208 217.379 97.3813 217.674 97.4985 218.036C97.6157 218.397 97.6743 218.827 97.6743 219.325V224.532H96.312V219.31C96.312 218.866 96.2412 218.521 96.0996 218.277C95.9629 218.028 95.7676 217.855 95.5137 217.757C95.2646 217.655 94.9668 217.604 94.6201 217.604C94.3223 217.604 94.0586 217.655 93.8291 217.757C93.5996 217.86 93.4067 218.001 93.2505 218.182C93.0942 218.358 92.9746 218.561 92.8916 218.79C92.8135 219.02 92.7744 219.264 92.7744 219.522ZM103.014 224.679C102.462 224.679 101.961 224.586 101.512 224.4C101.068 224.21 100.685 223.944 100.362 223.602C100.045 223.26 99.8008 222.855 99.6299 222.386C99.459 221.917 99.3735 221.405 99.3735 220.848V220.541C99.3735 219.896 99.4688 219.322 99.6592 218.819C99.8496 218.312 100.108 217.882 100.436 217.53C100.763 217.179 101.134 216.913 101.549 216.732C101.964 216.551 102.394 216.461 102.838 216.461C103.404 216.461 103.893 216.559 104.303 216.754C104.718 216.949 105.057 217.223 105.321 217.574C105.584 217.921 105.78 218.331 105.907 218.805C106.034 219.273 106.097 219.786 106.097 220.343V220.951H100.179V219.845H104.742V219.742C104.723 219.391 104.649 219.049 104.522 218.717C104.4 218.385 104.205 218.111 103.937 217.896C103.668 217.682 103.302 217.574 102.838 217.574C102.53 217.574 102.247 217.64 101.988 217.772C101.729 217.899 101.507 218.089 101.322 218.343C101.136 218.597 100.992 218.907 100.89 219.273C100.787 219.64 100.736 220.062 100.736 220.541V220.848C100.736 221.224 100.787 221.578 100.89 221.91C100.997 222.237 101.151 222.525 101.351 222.774C101.556 223.023 101.803 223.219 102.091 223.36C102.384 223.502 102.716 223.573 103.087 223.573C103.565 223.573 103.971 223.475 104.303 223.28C104.635 223.084 104.925 222.823 105.174 222.496L105.995 223.148C105.824 223.407 105.606 223.653 105.343 223.888C105.079 224.122 104.754 224.312 104.369 224.459C103.988 224.605 103.536 224.679 103.014 224.679ZM112.293 222.43C112.293 222.235 112.25 222.054 112.162 221.888C112.079 221.717 111.905 221.563 111.642 221.427C111.383 221.285 110.992 221.163 110.47 221.061C110.03 220.968 109.632 220.858 109.276 220.731C108.924 220.604 108.624 220.45 108.375 220.27C108.131 220.089 107.943 219.876 107.811 219.632C107.679 219.388 107.613 219.103 107.613 218.775C107.613 218.463 107.682 218.167 107.818 217.889C107.96 217.611 108.158 217.364 108.412 217.149C108.67 216.935 108.98 216.766 109.342 216.644C109.703 216.522 110.106 216.461 110.55 216.461C111.185 216.461 111.727 216.573 112.176 216.798C112.625 217.022 112.97 217.323 113.209 217.699C113.448 218.07 113.568 218.482 113.568 218.937H112.213C112.213 218.717 112.147 218.504 112.015 218.299C111.888 218.089 111.7 217.916 111.451 217.779C111.207 217.643 110.907 217.574 110.55 217.574C110.174 217.574 109.869 217.633 109.635 217.75C109.405 217.862 109.237 218.006 109.129 218.182C109.027 218.358 108.976 218.543 108.976 218.739C108.976 218.885 109 219.017 109.049 219.134C109.103 219.247 109.195 219.352 109.327 219.449C109.459 219.542 109.645 219.63 109.884 219.713C110.123 219.796 110.428 219.879 110.799 219.962C111.449 220.108 111.983 220.284 112.403 220.489C112.823 220.694 113.136 220.946 113.341 221.244C113.546 221.542 113.648 221.903 113.648 222.328C113.648 222.674 113.575 222.992 113.429 223.28C113.287 223.568 113.08 223.817 112.806 224.027C112.538 224.232 112.215 224.393 111.839 224.51C111.468 224.623 111.051 224.679 110.587 224.679C109.889 224.679 109.298 224.554 108.814 224.305C108.331 224.056 107.965 223.734 107.716 223.338C107.467 222.943 107.342 222.525 107.342 222.086H108.705C108.724 222.457 108.832 222.752 109.027 222.972C109.222 223.187 109.461 223.341 109.745 223.434C110.028 223.521 110.309 223.565 110.587 223.565C110.958 223.565 111.268 223.517 111.517 223.419C111.771 223.321 111.964 223.187 112.096 223.016C112.228 222.845 112.293 222.65 112.293 222.43ZM120.042 222.43C120.042 222.235 119.999 222.054 119.911 221.888C119.828 221.717 119.654 221.563 119.391 221.427C119.132 221.285 118.741 221.163 118.219 221.061C117.779 220.968 117.381 220.858 117.025 220.731C116.673 220.604 116.373 220.45 116.124 220.27C115.88 220.089 115.692 219.876 115.56 219.632C115.428 219.388 115.362 219.103 115.362 218.775C115.362 218.463 115.431 218.167 115.567 217.889C115.709 217.611 115.907 217.364 116.161 217.149C116.419 216.935 116.729 216.766 117.091 216.644C117.452 216.522 117.855 216.461 118.299 216.461C118.934 216.461 119.476 216.573 119.925 216.798C120.375 217.022 120.719 217.323 120.958 217.699C121.197 218.07 121.317 218.482 121.317 218.937H119.962C119.962 218.717 119.896 218.504 119.764 218.299C119.637 218.089 119.449 217.916 119.2 217.779C118.956 217.643 118.656 217.574 118.299 217.574C117.923 217.574 117.618 217.633 117.384 217.75C117.154 217.862 116.986 218.006 116.878 218.182C116.776 218.358 116.725 218.543 116.725 218.739C116.725 218.885 116.749 219.017 116.798 219.134C116.852 219.247 116.944 219.352 117.076 219.449C117.208 219.542 117.394 219.63 117.633 219.713C117.872 219.796 118.177 219.879 118.548 219.962C119.198 220.108 119.732 220.284 120.152 220.489C120.572 220.694 120.885 220.946 121.09 221.244C121.295 221.542 121.397 221.903 121.397 222.328C121.397 222.674 121.324 222.992 121.178 223.28C121.036 223.568 120.829 223.817 120.555 224.027C120.287 224.232 119.964 224.393 119.588 224.51C119.217 224.623 118.8 224.679 118.336 224.679C117.638 224.679 117.047 224.554 116.563 224.305C116.08 224.056 115.714 223.734 115.465 223.338C115.216 222.943 115.091 222.525 115.091 222.086H116.454C116.473 222.457 116.581 222.752 116.776 222.972C116.971 223.187 117.21 223.341 117.494 223.434C117.777 223.521 118.058 223.565 118.336 223.565C118.707 223.565 119.017 223.517 119.266 223.419C119.52 223.321 119.713 223.187 119.845 223.016C119.977 222.845 120.042 222.65 120.042 222.43ZM127.85 223.177V219.098C127.85 218.785 127.787 218.514 127.66 218.285C127.538 218.05 127.352 217.87 127.103 217.743C126.854 217.616 126.546 217.552 126.18 217.552C125.838 217.552 125.538 217.611 125.279 217.728C125.025 217.845 124.825 217.999 124.679 218.189C124.537 218.38 124.466 218.585 124.466 218.805H123.111C123.111 218.521 123.185 218.241 123.331 217.962C123.478 217.684 123.688 217.433 123.961 217.208C124.239 216.979 124.571 216.798 124.957 216.666C125.348 216.529 125.782 216.461 126.261 216.461C126.837 216.461 127.345 216.559 127.784 216.754C128.229 216.949 128.575 217.245 128.824 217.64C129.078 218.031 129.205 218.521 129.205 219.112V222.804C129.205 223.067 129.227 223.348 129.271 223.646C129.32 223.944 129.391 224.2 129.483 224.415V224.532H128.07C128.001 224.376 127.948 224.168 127.909 223.91C127.87 223.646 127.85 223.402 127.85 223.177ZM128.084 219.728L128.099 220.68H126.729C126.344 220.68 126 220.711 125.697 220.775C125.394 220.833 125.14 220.924 124.935 221.046C124.73 221.168 124.574 221.322 124.466 221.507C124.359 221.688 124.305 221.9 124.305 222.145C124.305 222.394 124.361 222.621 124.474 222.826C124.586 223.031 124.754 223.194 124.979 223.316C125.208 223.434 125.489 223.492 125.821 223.492C126.236 223.492 126.603 223.404 126.92 223.229C127.237 223.053 127.489 222.838 127.674 222.584C127.865 222.33 127.967 222.083 127.982 221.844L128.561 222.496C128.526 222.701 128.434 222.928 128.282 223.177C128.131 223.426 127.928 223.666 127.674 223.895C127.425 224.12 127.127 224.308 126.781 224.459C126.439 224.605 126.053 224.679 125.624 224.679C125.086 224.679 124.615 224.574 124.21 224.364C123.81 224.154 123.497 223.873 123.272 223.521C123.053 223.165 122.943 222.767 122.943 222.328C122.943 221.903 123.026 221.529 123.192 221.207C123.358 220.88 123.597 220.609 123.91 220.394C124.222 220.174 124.598 220.008 125.038 219.896C125.477 219.784 125.968 219.728 126.51 219.728H128.084ZM136.471 216.607H137.701V224.364C137.701 225.062 137.56 225.658 137.276 226.151C136.993 226.644 136.598 227.018 136.09 227.271C135.587 227.53 135.006 227.66 134.347 227.66C134.073 227.66 133.751 227.616 133.38 227.528C133.014 227.445 132.652 227.301 132.296 227.096C131.944 226.896 131.649 226.625 131.41 226.283L132.12 225.477C132.452 225.877 132.799 226.156 133.16 226.312C133.526 226.468 133.888 226.546 134.244 226.546C134.674 226.546 135.045 226.466 135.357 226.305C135.67 226.144 135.912 225.904 136.083 225.587C136.258 225.274 136.346 224.889 136.346 224.43V218.351L136.471 216.607ZM131.014 220.658V220.504C131.014 219.898 131.085 219.349 131.227 218.856C131.373 218.358 131.581 217.931 131.849 217.574C132.123 217.218 132.452 216.944 132.838 216.754C133.224 216.559 133.658 216.461 134.142 216.461C134.64 216.461 135.074 216.549 135.445 216.725C135.821 216.896 136.139 217.147 136.397 217.479C136.661 217.806 136.869 218.202 137.02 218.666C137.171 219.129 137.276 219.654 137.335 220.24V220.914C137.281 221.495 137.176 222.018 137.02 222.481C136.869 222.945 136.661 223.341 136.397 223.668C136.139 223.995 135.821 224.247 135.445 224.422C135.069 224.593 134.63 224.679 134.127 224.679C133.653 224.679 133.224 224.579 132.838 224.378C132.457 224.178 132.13 223.897 131.856 223.536C131.583 223.175 131.373 222.75 131.227 222.262C131.085 221.769 131.014 221.234 131.014 220.658ZM132.369 220.504V220.658C132.369 221.053 132.408 221.424 132.486 221.771C132.569 222.118 132.694 222.423 132.86 222.687C133.031 222.95 133.248 223.158 133.512 223.309C133.775 223.456 134.09 223.529 134.457 223.529C134.906 223.529 135.277 223.434 135.57 223.243C135.863 223.053 136.095 222.801 136.266 222.489C136.441 222.176 136.578 221.837 136.676 221.471V219.706C136.622 219.437 136.539 219.178 136.427 218.929C136.319 218.675 136.178 218.451 136.002 218.255C135.831 218.055 135.619 217.896 135.365 217.779C135.111 217.662 134.813 217.604 134.471 217.604C134.1 217.604 133.78 217.682 133.512 217.838C133.248 217.989 133.031 218.199 132.86 218.468C132.694 218.731 132.569 219.039 132.486 219.391C132.408 219.737 132.369 220.108 132.369 220.504ZM143.048 224.679C142.496 224.679 141.996 224.586 141.546 224.4C141.102 224.21 140.719 223.944 140.396 223.602C140.079 223.26 139.835 222.855 139.664 222.386C139.493 221.917 139.408 221.405 139.408 220.848V220.541C139.408 219.896 139.503 219.322 139.693 218.819C139.884 218.312 140.143 217.882 140.47 217.53C140.797 217.179 141.168 216.913 141.583 216.732C141.998 216.551 142.428 216.461 142.872 216.461C143.438 216.461 143.927 216.559 144.337 216.754C144.752 216.949 145.091 217.223 145.355 217.574C145.619 217.921 145.814 218.331 145.941 218.805C146.068 219.273 146.131 219.786 146.131 220.343V220.951H140.213V219.845H144.776V219.742C144.757 219.391 144.684 219.049 144.557 218.717C144.435 218.385 144.239 218.111 143.971 217.896C143.702 217.682 143.336 217.574 142.872 217.574C142.564 217.574 142.281 217.64 142.022 217.772C141.764 217.899 141.542 218.089 141.356 218.343C141.17 218.597 141.026 218.907 140.924 219.273C140.821 219.64 140.77 220.062 140.77 220.541V220.848C140.77 221.224 140.821 221.578 140.924 221.91C141.031 222.237 141.185 222.525 141.385 222.774C141.59 223.023 141.837 223.219 142.125 223.36C142.418 223.502 142.75 223.573 143.121 223.573C143.6 223.573 144.005 223.475 144.337 223.28C144.669 223.084 144.959 222.823 145.208 222.496L146.029 223.148C145.858 223.407 145.641 223.653 145.377 223.888C145.113 224.122 144.789 224.312 144.403 224.459C144.022 224.605 143.57 224.679 143.048 224.679ZM148.944 222.921V224.012C148.944 224.457 148.832 224.925 148.607 225.418C148.382 225.917 148.067 226.332 147.662 226.664L146.893 226.129C147.049 225.914 147.181 225.694 147.289 225.47C147.396 225.25 147.477 225.021 147.53 224.781C147.589 224.547 147.618 224.298 147.618 224.034V222.921H148.944ZM26.3877 231.282V242.532H25.0327V231.282H26.3877ZM26.0654 238.27L25.5015 238.248C25.5063 237.706 25.5869 237.205 25.7432 236.746C25.8994 236.282 26.1191 235.879 26.4023 235.538C26.6855 235.196 27.0225 234.932 27.4131 234.747C27.8086 234.556 28.2456 234.461 28.7241 234.461C29.1147 234.461 29.4663 234.515 29.7788 234.622C30.0913 234.725 30.3574 234.891 30.5771 235.12C30.8018 235.35 30.9727 235.647 31.0898 236.014C31.207 236.375 31.2656 236.817 31.2656 237.339V242.532H29.9033V237.325C29.9033 236.91 29.8423 236.578 29.7202 236.329C29.5981 236.075 29.4199 235.892 29.1855 235.779C28.9512 235.662 28.6631 235.604 28.3213 235.604C27.9844 235.604 27.6768 235.674 27.3984 235.816C27.125 235.958 26.8882 236.153 26.688 236.402C26.4927 236.651 26.3389 236.937 26.2266 237.259C26.1191 237.576 26.0654 237.913 26.0654 238.27ZM32.9355 238.658V238.489C32.9355 237.918 33.0186 237.388 33.1846 236.9C33.3506 236.407 33.5898 235.979 33.9023 235.618C34.2148 235.252 34.5933 234.969 35.0376 234.769C35.4819 234.563 35.98 234.461 36.5317 234.461C37.0884 234.461 37.5889 234.563 38.0332 234.769C38.4824 234.969 38.8633 235.252 39.1758 235.618C39.4932 235.979 39.7349 236.407 39.9009 236.9C40.0669 237.388 40.1499 237.918 40.1499 238.489V238.658C40.1499 239.229 40.0669 239.759 39.9009 240.247C39.7349 240.735 39.4932 241.163 39.1758 241.529C38.8633 241.89 38.4849 242.173 38.0405 242.378C37.6011 242.579 37.103 242.679 36.5464 242.679C35.9897 242.679 35.4893 242.579 35.0449 242.378C34.6006 242.173 34.2197 241.89 33.9023 241.529C33.5898 241.163 33.3506 240.735 33.1846 240.247C33.0186 239.759 32.9355 239.229 32.9355 238.658ZM34.2905 238.489V238.658C34.2905 239.053 34.3369 239.427 34.4297 239.778C34.5225 240.125 34.6616 240.433 34.8472 240.701C35.0376 240.97 35.2744 241.182 35.5576 241.338C35.8408 241.49 36.1704 241.565 36.5464 241.565C36.9175 241.565 37.2422 241.49 37.5205 241.338C37.8037 241.182 38.0381 240.97 38.2236 240.701C38.4092 240.433 38.5483 240.125 38.6411 239.778C38.7388 239.427 38.7876 239.053 38.7876 238.658V238.489C38.7876 238.099 38.7388 237.73 38.6411 237.383C38.5483 237.032 38.4067 236.722 38.2163 236.453C38.0308 236.18 37.7964 235.965 37.5132 235.809C37.2349 235.652 36.9077 235.574 36.5317 235.574C36.1606 235.574 35.8335 235.652 35.5503 235.809C35.272 235.965 35.0376 236.18 34.8472 236.453C34.6616 236.722 34.5225 237.032 34.4297 237.383C34.3369 237.73 34.2905 238.099 34.2905 238.489ZM44.1416 241.309L46.3096 234.607H47.6938L44.8447 242.532H43.9365L44.1416 241.309ZM42.3325 234.607L44.5664 241.346L44.7202 242.532H43.812L40.9409 234.607H42.3325ZM52.1836 242.679C51.6318 242.679 51.1313 242.586 50.6821 242.4C50.2378 242.21 49.8545 241.944 49.5322 241.602C49.2148 241.26 48.9707 240.855 48.7998 240.386C48.6289 239.917 48.5435 239.405 48.5435 238.848V238.541C48.5435 237.896 48.6387 237.322 48.8291 236.819C49.0195 236.312 49.2783 235.882 49.6055 235.53C49.9326 235.179 50.3037 234.913 50.7188 234.732C51.1338 234.551 51.5635 234.461 52.0078 234.461C52.5742 234.461 53.0625 234.559 53.4727 234.754C53.8877 234.949 54.2271 235.223 54.4907 235.574C54.7544 235.921 54.9497 236.331 55.0767 236.805C55.2036 237.273 55.2671 237.786 55.2671 238.343V238.951H49.3491V237.845H53.9121V237.742C53.8926 237.391 53.8193 237.049 53.6924 236.717C53.5703 236.385 53.375 236.111 53.1064 235.896C52.8379 235.682 52.4717 235.574 52.0078 235.574C51.7002 235.574 51.417 235.64 51.1582 235.772C50.8994 235.899 50.6772 236.089 50.4917 236.343C50.3062 236.597 50.1621 236.907 50.0596 237.273C49.957 237.64 49.9058 238.062 49.9058 238.541V238.848C49.9058 239.224 49.957 239.578 50.0596 239.91C50.167 240.237 50.3208 240.525 50.521 240.774C50.7261 241.023 50.9727 241.219 51.2607 241.36C51.5537 241.502 51.8857 241.573 52.2568 241.573C52.7354 241.573 53.1406 241.475 53.4727 241.28C53.8047 241.084 54.0952 240.823 54.3442 240.496L55.1646 241.148C54.9937 241.407 54.7764 241.653 54.5127 241.888C54.249 242.122 53.9243 242.312 53.5386 242.459C53.1577 242.605 52.7061 242.679 52.1836 242.679ZM58.2041 235.853V242.532H56.8491V234.607H58.1675L58.2041 235.853ZM60.6797 234.563L60.6724 235.823C60.5601 235.799 60.4526 235.784 60.3501 235.779C60.2524 235.77 60.1401 235.765 60.0132 235.765C59.7007 235.765 59.4248 235.813 59.1855 235.911C58.9463 236.009 58.7437 236.146 58.5776 236.321C58.4116 236.497 58.2798 236.707 58.1821 236.951C58.0894 237.19 58.0283 237.454 57.999 237.742L57.6182 237.962C57.6182 237.483 57.6646 237.034 57.7573 236.614C57.855 236.194 58.0039 235.823 58.2041 235.501C58.4043 235.174 58.6582 234.92 58.9658 234.739C59.2783 234.554 59.6494 234.461 60.0791 234.461C60.1768 234.461 60.2891 234.473 60.416 234.498C60.543 234.517 60.6309 234.539 60.6797 234.563ZM68.9707 234.607V235.647H64.686V234.607H68.9707ZM66.1362 232.681H67.4912V240.569C67.4912 240.838 67.5327 241.041 67.6157 241.177C67.6987 241.314 67.8062 241.404 67.938 241.448C68.0698 241.492 68.2114 241.514 68.3628 241.514C68.4751 241.514 68.5923 241.504 68.7144 241.485C68.8413 241.46 68.9365 241.441 69 241.426L69.0073 242.532C68.8999 242.566 68.7583 242.598 68.5825 242.627C68.4116 242.662 68.2041 242.679 67.96 242.679C67.6279 242.679 67.3228 242.613 67.0444 242.481C66.7661 242.349 66.5439 242.129 66.3779 241.822C66.2168 241.509 66.1362 241.089 66.1362 240.562V232.681ZM70.0547 238.658V238.489C70.0547 237.918 70.1377 237.388 70.3037 236.9C70.4697 236.407 70.709 235.979 71.0215 235.618C71.334 235.252 71.7124 234.969 72.1567 234.769C72.6011 234.563 73.0991 234.461 73.6509 234.461C74.2075 234.461 74.708 234.563 75.1523 234.769C75.6016 234.969 75.9824 235.252 76.2949 235.618C76.6123 235.979 76.854 236.407 77.02 236.9C77.186 237.388 77.269 237.918 77.269 238.489V238.658C77.269 239.229 77.186 239.759 77.02 240.247C76.854 240.735 76.6123 241.163 76.2949 241.529C75.9824 241.89 75.604 242.173 75.1597 242.378C74.7202 242.579 74.2222 242.679 73.6655 242.679C73.1089 242.679 72.6084 242.579 72.1641 242.378C71.7197 242.173 71.3389 241.89 71.0215 241.529C70.709 241.163 70.4697 240.735 70.3037 240.247C70.1377 239.759 70.0547 239.229 70.0547 238.658ZM71.4097 238.489V238.658C71.4097 239.053 71.4561 239.427 71.5488 239.778C71.6416 240.125 71.7808 240.433 71.9663 240.701C72.1567 240.97 72.3936 241.182 72.6768 241.338C72.96 241.49 73.2896 241.565 73.6655 241.565C74.0366 241.565 74.3613 241.49 74.6396 241.338C74.9229 241.182 75.1572 240.97 75.3428 240.701C75.5283 240.433 75.6675 240.125 75.7603 239.778C75.8579 239.427 75.9067 239.053 75.9067 238.658V238.489C75.9067 238.099 75.8579 237.73 75.7603 237.383C75.6675 237.032 75.5259 236.722 75.3354 236.453C75.1499 236.18 74.9155 235.965 74.6323 235.809C74.354 235.652 74.0269 235.574 73.6509 235.574C73.2798 235.574 72.9526 235.652 72.6694 235.809C72.3911 235.965 72.1567 236.18 71.9663 236.453C71.7808 236.722 71.6416 237.032 71.5488 237.383C71.4561 237.73 71.4097 238.099 71.4097 238.489ZM87.3032 240.43C87.3032 240.235 87.2593 240.054 87.1714 239.888C87.0884 239.717 86.915 239.563 86.6514 239.427C86.3926 239.285 86.002 239.163 85.4795 239.061C85.04 238.968 84.6421 238.858 84.2856 238.731C83.9341 238.604 83.6338 238.45 83.3848 238.27C83.1406 238.089 82.9526 237.876 82.8208 237.632C82.689 237.388 82.623 237.103 82.623 236.775C82.623 236.463 82.6914 236.167 82.8281 235.889C82.9697 235.611 83.1675 235.364 83.4214 235.149C83.6802 234.935 83.9902 234.766 84.3516 234.644C84.7129 234.522 85.1157 234.461 85.5601 234.461C86.1948 234.461 86.7368 234.573 87.186 234.798C87.6353 235.022 87.9795 235.323 88.2188 235.699C88.458 236.07 88.5776 236.482 88.5776 236.937H87.2227C87.2227 236.717 87.1567 236.504 87.0249 236.299C86.8979 236.089 86.71 235.916 86.4609 235.779C86.2168 235.643 85.9165 235.574 85.5601 235.574C85.1841 235.574 84.8789 235.633 84.6445 235.75C84.415 235.862 84.2466 236.006 84.1392 236.182C84.0366 236.358 83.9854 236.543 83.9854 236.739C83.9854 236.885 84.0098 237.017 84.0586 237.134C84.1123 237.247 84.2051 237.352 84.3369 237.449C84.4688 237.542 84.6543 237.63 84.8936 237.713C85.1328 237.796 85.438 237.879 85.8091 237.962C86.4585 238.108 86.9932 238.284 87.4131 238.489C87.833 238.694 88.1455 238.946 88.3506 239.244C88.5557 239.542 88.6582 239.903 88.6582 240.328C88.6582 240.674 88.585 240.992 88.4385 241.28C88.2969 241.568 88.0894 241.817 87.8159 242.027C87.5474 242.232 87.2251 242.393 86.8491 242.51C86.478 242.623 86.0605 242.679 85.5967 242.679C84.8984 242.679 84.3076 242.554 83.8242 242.305C83.3408 242.056 82.9746 241.734 82.7256 241.338C82.4766 240.943 82.3521 240.525 82.3521 240.086H83.7144C83.7339 240.457 83.8413 240.752 84.0366 240.972C84.2319 241.187 84.4712 241.341 84.7544 241.434C85.0376 241.521 85.3184 241.565 85.5967 241.565C85.9678 241.565 86.2778 241.517 86.5269 241.419C86.7808 241.321 86.9736 241.187 87.1055 241.016C87.2373 240.845 87.3032 240.65 87.3032 240.43ZM91.793 231.282V242.532H90.438V231.282H91.793ZM91.4707 238.27L90.9067 238.248C90.9116 237.706 90.9922 237.205 91.1484 236.746C91.3047 236.282 91.5244 235.879 91.8076 235.538C92.0908 235.196 92.4277 234.932 92.8184 234.747C93.2139 234.556 93.6509 234.461 94.1294 234.461C94.52 234.461 94.8716 234.515 95.1841 234.622C95.4966 234.725 95.7627 234.891 95.9824 235.12C96.207 235.35 96.3779 235.647 96.4951 236.014C96.6123 236.375 96.6709 236.817 96.6709 237.339V242.532H95.3086V237.325C95.3086 236.91 95.2476 236.578 95.1255 236.329C95.0034 236.075 94.8252 235.892 94.5908 235.779C94.3564 235.662 94.0684 235.604 93.7266 235.604C93.3896 235.604 93.082 235.674 92.8037 235.816C92.5303 235.958 92.2935 236.153 92.0933 236.402C91.8979 236.651 91.7441 236.937 91.6318 237.259C91.5244 237.576 91.4707 237.913 91.4707 238.27ZM98.3408 238.658V238.489C98.3408 237.918 98.4238 237.388 98.5898 236.9C98.7559 236.407 98.9951 235.979 99.3076 235.618C99.6201 235.252 99.9985 234.969 100.443 234.769C100.887 234.563 101.385 234.461 101.937 234.461C102.494 234.461 102.994 234.563 103.438 234.769C103.888 234.969 104.269 235.252 104.581 235.618C104.898 235.979 105.14 236.407 105.306 236.9C105.472 237.388 105.555 237.918 105.555 238.489V238.658C105.555 239.229 105.472 239.759 105.306 240.247C105.14 240.735 104.898 241.163 104.581 241.529C104.269 241.89 103.89 242.173 103.446 242.378C103.006 242.579 102.508 242.679 101.952 242.679C101.395 242.679 100.895 242.579 100.45 242.378C100.006 242.173 99.625 241.89 99.3076 241.529C98.9951 241.163 98.7559 240.735 98.5898 240.247C98.4238 239.759 98.3408 239.229 98.3408 238.658ZM99.6958 238.489V238.658C99.6958 239.053 99.7422 239.427 99.835 239.778C99.9277 240.125 100.067 240.433 100.252 240.701C100.443 240.97 100.68 241.182 100.963 241.338C101.246 241.49 101.576 241.565 101.952 241.565C102.323 241.565 102.647 241.49 102.926 241.338C103.209 241.182 103.443 240.97 103.629 240.701C103.814 240.433 103.954 240.125 104.046 239.778C104.144 239.427 104.193 239.053 104.193 238.658V238.489C104.193 238.099 104.144 237.73 104.046 237.383C103.954 237.032 103.812 236.722 103.622 236.453C103.436 236.18 103.202 235.965 102.918 235.809C102.64 235.652 102.313 235.574 101.937 235.574C101.566 235.574 101.239 235.652 100.956 235.809C100.677 235.965 100.443 236.18 100.252 236.453C100.067 236.722 99.9277 237.032 99.835 237.383C99.7422 237.73 99.6958 238.099 99.6958 238.489ZM109.261 241.126L111.297 234.607H112.191L112.015 235.904L109.942 242.532H109.071L109.261 241.126ZM107.892 234.607L109.627 241.199L109.752 242.532H108.836L106.537 234.607H107.892ZM114.139 241.148L115.794 234.607H117.142L114.842 242.532H113.934L114.139 241.148ZM112.389 234.607L114.381 241.016L114.608 242.532H113.744L111.612 235.889L111.437 234.607H112.389ZM123.602 236.182V242.532H122.24V234.607H123.529L123.602 236.182ZM123.324 238.27L122.694 238.248C122.699 237.706 122.77 237.205 122.906 236.746C123.043 236.282 123.246 235.879 123.514 235.538C123.783 235.196 124.117 234.932 124.518 234.747C124.918 234.556 125.382 234.461 125.909 234.461C126.28 234.461 126.622 234.515 126.935 234.622C127.247 234.725 127.518 234.888 127.748 235.113C127.977 235.337 128.155 235.625 128.282 235.977C128.409 236.329 128.473 236.753 128.473 237.251V242.532H127.118V237.317C127.118 236.902 127.047 236.57 126.905 236.321C126.769 236.072 126.573 235.892 126.319 235.779C126.065 235.662 125.768 235.604 125.426 235.604C125.025 235.604 124.691 235.674 124.422 235.816C124.154 235.958 123.939 236.153 123.778 236.402C123.617 236.651 123.5 236.937 123.426 237.259C123.358 237.576 123.324 237.913 123.324 238.27ZM128.458 237.522L127.55 237.801C127.555 237.366 127.625 236.949 127.762 236.548C127.904 236.148 128.106 235.792 128.37 235.479C128.639 235.167 128.968 234.92 129.359 234.739C129.75 234.554 130.196 234.461 130.699 234.461C131.124 234.461 131.5 234.517 131.827 234.629C132.159 234.742 132.438 234.915 132.662 235.149C132.892 235.379 133.065 235.674 133.182 236.036C133.299 236.397 133.358 236.827 133.358 237.325V242.532H131.996V237.31C131.996 236.866 131.925 236.521 131.783 236.277C131.646 236.028 131.451 235.855 131.197 235.757C130.948 235.655 130.65 235.604 130.304 235.604C130.006 235.604 129.742 235.655 129.513 235.757C129.283 235.86 129.09 236.001 128.934 236.182C128.778 236.358 128.658 236.561 128.575 236.79C128.497 237.02 128.458 237.264 128.458 237.522ZM138.697 242.679C138.146 242.679 137.645 242.586 137.196 242.4C136.751 242.21 136.368 241.944 136.046 241.602C135.729 241.26 135.484 240.855 135.313 240.386C135.143 239.917 135.057 239.405 135.057 238.848V238.541C135.057 237.896 135.152 237.322 135.343 236.819C135.533 236.312 135.792 235.882 136.119 235.53C136.446 235.179 136.817 234.913 137.232 234.732C137.647 234.551 138.077 234.461 138.521 234.461C139.088 234.461 139.576 234.559 139.986 234.754C140.401 234.949 140.741 235.223 141.004 235.574C141.268 235.921 141.463 236.331 141.59 236.805C141.717 237.273 141.781 237.786 141.781 238.343V238.951H135.863V237.845H140.426V237.742C140.406 237.391 140.333 237.049 140.206 236.717C140.084 236.385 139.889 236.111 139.62 235.896C139.352 235.682 138.985 235.574 138.521 235.574C138.214 235.574 137.931 235.64 137.672 235.772C137.413 235.899 137.191 236.089 137.005 236.343C136.82 236.597 136.676 236.907 136.573 237.273C136.471 237.64 136.419 238.062 136.419 238.541V238.848C136.419 239.224 136.471 239.578 136.573 239.91C136.681 240.237 136.834 240.525 137.035 240.774C137.24 241.023 137.486 241.219 137.774 241.36C138.067 241.502 138.399 241.573 138.771 241.573C139.249 241.573 139.654 241.475 139.986 241.28C140.318 241.084 140.609 240.823 140.858 240.496L141.678 241.148C141.507 241.407 141.29 241.653 141.026 241.888C140.763 242.122 140.438 242.312 140.052 242.459C139.671 242.605 139.22 242.679 138.697 242.679ZM147.977 240.43C147.977 240.235 147.933 240.054 147.845 239.888C147.762 239.717 147.589 239.563 147.325 239.427C147.066 239.285 146.676 239.163 146.153 239.061C145.714 238.968 145.316 238.858 144.959 238.731C144.608 238.604 144.308 238.45 144.059 238.27C143.814 238.089 143.626 237.876 143.495 237.632C143.363 237.388 143.297 237.103 143.297 236.775C143.297 236.463 143.365 236.167 143.502 235.889C143.644 235.611 143.841 235.364 144.095 235.149C144.354 234.935 144.664 234.766 145.025 234.644C145.387 234.522 145.79 234.461 146.234 234.461C146.869 234.461 147.411 234.573 147.86 234.798C148.309 235.022 148.653 235.323 148.893 235.699C149.132 236.07 149.251 236.482 149.251 236.937H147.896C147.896 236.717 147.831 236.504 147.699 236.299C147.572 236.089 147.384 235.916 147.135 235.779C146.891 235.643 146.59 235.574 146.234 235.574C145.858 235.574 145.553 235.633 145.318 235.75C145.089 235.862 144.92 236.006 144.813 236.182C144.71 236.358 144.659 236.543 144.659 236.739C144.659 236.885 144.684 237.017 144.732 237.134C144.786 237.247 144.879 237.352 145.011 237.449C145.143 237.542 145.328 237.63 145.567 237.713C145.807 237.796 146.112 237.879 146.483 237.962C147.132 238.108 147.667 238.284 148.087 238.489C148.507 238.694 148.819 238.946 149.024 239.244C149.229 239.542 149.332 239.903 149.332 240.328C149.332 240.674 149.259 240.992 149.112 241.28C148.971 241.568 148.763 241.817 148.49 242.027C148.221 242.232 147.899 242.393 147.523 242.51C147.152 242.623 146.734 242.679 146.271 242.679C145.572 242.679 144.981 242.554 144.498 242.305C144.015 242.056 143.648 241.734 143.399 241.338C143.15 240.943 143.026 240.525 143.026 240.086H144.388C144.408 240.457 144.515 240.752 144.71 240.972C144.906 241.187 145.145 241.341 145.428 241.434C145.711 241.521 145.992 241.565 146.271 241.565C146.642 241.565 146.952 241.517 147.201 241.419C147.455 241.321 147.647 241.187 147.779 241.016C147.911 240.845 147.977 240.65 147.977 240.43ZM155.726 240.43C155.726 240.235 155.682 240.054 155.594 239.888C155.511 239.717 155.338 239.563 155.074 239.427C154.815 239.285 154.425 239.163 153.902 239.061C153.463 238.968 153.065 238.858 152.708 238.731C152.357 238.604 152.057 238.45 151.808 238.27C151.563 238.089 151.375 237.876 151.244 237.632C151.112 237.388 151.046 237.103 151.046 236.775C151.046 236.463 151.114 236.167 151.251 235.889C151.393 235.611 151.59 235.364 151.844 235.149C152.103 234.935 152.413 234.766 152.774 234.644C153.136 234.522 153.539 234.461 153.983 234.461C154.618 234.461 155.16 234.573 155.609 234.798C156.058 235.022 156.402 235.323 156.642 235.699C156.881 236.07 157 236.482 157 236.937H155.646C155.646 236.717 155.58 236.504 155.448 236.299C155.321 236.089 155.133 235.916 154.884 235.779C154.64 235.643 154.339 235.574 153.983 235.574C153.607 235.574 153.302 235.633 153.067 235.75C152.838 235.862 152.669 236.006 152.562 236.182C152.459 236.358 152.408 236.543 152.408 236.739C152.408 236.885 152.433 237.017 152.481 237.134C152.535 237.247 152.628 237.352 152.76 237.449C152.892 237.542 153.077 237.63 153.316 237.713C153.556 237.796 153.861 237.879 154.232 237.962C154.881 238.108 155.416 238.284 155.836 238.489C156.256 238.694 156.568 238.946 156.773 239.244C156.979 239.542 157.081 239.903 157.081 240.328C157.081 240.674 157.008 240.992 156.861 241.28C156.72 241.568 156.512 241.817 156.239 242.027C155.97 242.232 155.648 242.393 155.272 242.51C154.901 242.623 154.483 242.679 154.02 242.679C153.321 242.679 152.73 242.554 152.247 242.305C151.764 242.056 151.397 241.734 151.148 241.338C150.899 240.943 150.775 240.525 150.775 240.086H152.137C152.157 240.457 152.264 240.752 152.459 240.972C152.655 241.187 152.894 241.341 153.177 241.434C153.46 241.521 153.741 241.565 154.02 241.565C154.391 241.565 154.701 241.517 154.95 241.419C155.204 241.321 155.396 241.187 155.528 241.016C155.66 240.845 155.726 240.65 155.726 240.43ZM163.534 241.177V237.098C163.534 236.785 163.47 236.514 163.343 236.285C163.221 236.05 163.036 235.87 162.787 235.743C162.538 235.616 162.23 235.552 161.864 235.552C161.522 235.552 161.222 235.611 160.963 235.728C160.709 235.845 160.509 235.999 160.362 236.189C160.221 236.38 160.15 236.585 160.15 236.805H158.795C158.795 236.521 158.868 236.241 159.015 235.962C159.161 235.684 159.371 235.433 159.645 235.208C159.923 234.979 160.255 234.798 160.641 234.666C161.031 234.529 161.466 234.461 161.944 234.461C162.521 234.461 163.028 234.559 163.468 234.754C163.912 234.949 164.259 235.245 164.508 235.64C164.762 236.031 164.889 236.521 164.889 237.112V240.804C164.889 241.067 164.911 241.348 164.955 241.646C165.003 241.944 165.074 242.2 165.167 242.415V242.532H163.753C163.685 242.376 163.631 242.168 163.592 241.91C163.553 241.646 163.534 241.402 163.534 241.177ZM163.768 237.728L163.783 238.68H162.413C162.027 238.68 161.683 238.711 161.38 238.775C161.078 238.833 160.824 238.924 160.619 239.046C160.414 239.168 160.257 239.322 160.15 239.507C160.042 239.688 159.989 239.9 159.989 240.145C159.989 240.394 160.045 240.621 160.157 240.826C160.27 241.031 160.438 241.194 160.663 241.316C160.892 241.434 161.173 241.492 161.505 241.492C161.92 241.492 162.286 241.404 162.604 241.229C162.921 241.053 163.172 240.838 163.358 240.584C163.548 240.33 163.651 240.083 163.666 239.844L164.244 240.496C164.21 240.701 164.117 240.928 163.966 241.177C163.814 241.426 163.612 241.666 163.358 241.895C163.109 242.12 162.811 242.308 162.464 242.459C162.123 242.605 161.737 242.679 161.307 242.679C160.77 242.679 160.299 242.574 159.894 242.364C159.493 242.154 159.181 241.873 158.956 241.521C158.736 241.165 158.626 240.767 158.626 240.328C158.626 239.903 158.709 239.529 158.875 239.207C159.042 238.88 159.281 238.609 159.593 238.394C159.906 238.174 160.282 238.008 160.721 237.896C161.161 237.784 161.651 237.728 162.193 237.728H163.768ZM172.154 234.607H173.385V242.364C173.385 243.062 173.243 243.658 172.96 244.151C172.677 244.644 172.281 245.018 171.773 245.271C171.271 245.53 170.689 245.66 170.03 245.66C169.757 245.66 169.435 245.616 169.063 245.528C168.697 245.445 168.336 245.301 167.979 245.096C167.628 244.896 167.333 244.625 167.093 244.283L167.804 243.477C168.136 243.877 168.482 244.156 168.844 244.312C169.21 244.468 169.571 244.546 169.928 244.546C170.357 244.546 170.729 244.466 171.041 244.305C171.354 244.144 171.595 243.904 171.766 243.587C171.942 243.274 172.03 242.889 172.03 242.43V236.351L172.154 234.607ZM166.698 238.658V238.504C166.698 237.898 166.769 237.349 166.91 236.856C167.057 236.358 167.264 235.931 167.533 235.574C167.806 235.218 168.136 234.944 168.521 234.754C168.907 234.559 169.342 234.461 169.825 234.461C170.323 234.461 170.758 234.549 171.129 234.725C171.505 234.896 171.822 235.147 172.081 235.479C172.345 235.806 172.552 236.202 172.704 236.666C172.855 237.129 172.96 237.654 173.019 238.24V238.914C172.965 239.495 172.86 240.018 172.704 240.481C172.552 240.945 172.345 241.341 172.081 241.668C171.822 241.995 171.505 242.247 171.129 242.422C170.753 242.593 170.313 242.679 169.811 242.679C169.337 242.679 168.907 242.579 168.521 242.378C168.141 242.178 167.813 241.897 167.54 241.536C167.267 241.175 167.057 240.75 166.91 240.262C166.769 239.769 166.698 239.234 166.698 238.658ZM168.053 238.504V238.658C168.053 239.053 168.092 239.424 168.17 239.771C168.253 240.118 168.377 240.423 168.543 240.687C168.714 240.95 168.932 241.158 169.195 241.309C169.459 241.456 169.774 241.529 170.14 241.529C170.589 241.529 170.96 241.434 171.253 241.243C171.546 241.053 171.778 240.801 171.949 240.489C172.125 240.176 172.262 239.837 172.359 239.471V237.706C172.306 237.437 172.223 237.178 172.11 236.929C172.003 236.675 171.861 236.451 171.686 236.255C171.515 236.055 171.302 235.896 171.048 235.779C170.794 235.662 170.497 235.604 170.155 235.604C169.784 235.604 169.464 235.682 169.195 235.838C168.932 235.989 168.714 236.199 168.543 236.468C168.377 236.731 168.253 237.039 168.17 237.391C168.092 237.737 168.053 238.108 168.053 238.504ZM178.731 242.679C178.18 242.679 177.679 242.586 177.23 242.4C176.786 242.21 176.402 241.944 176.08 241.602C175.763 241.26 175.519 240.855 175.348 240.386C175.177 239.917 175.091 239.405 175.091 238.848V238.541C175.091 237.896 175.187 237.322 175.377 236.819C175.567 236.312 175.826 235.882 176.153 235.53C176.48 235.179 176.852 234.913 177.267 234.732C177.682 234.551 178.111 234.461 178.556 234.461C179.122 234.461 179.61 234.559 180.021 234.754C180.436 234.949 180.775 235.223 181.039 235.574C181.302 235.921 181.498 236.331 181.625 236.805C181.751 237.273 181.815 237.786 181.815 238.343V238.951H175.897V237.845H180.46V237.742C180.44 237.391 180.367 237.049 180.24 236.717C180.118 236.385 179.923 236.111 179.654 235.896C179.386 235.682 179.02 235.574 178.556 235.574C178.248 235.574 177.965 235.64 177.706 235.772C177.447 235.899 177.225 236.089 177.04 236.343C176.854 236.597 176.71 236.907 176.607 237.273C176.505 237.64 176.454 238.062 176.454 238.541V238.848C176.454 239.224 176.505 239.578 176.607 239.91C176.715 240.237 176.869 240.525 177.069 240.774C177.274 241.023 177.521 241.219 177.809 241.36C178.102 241.502 178.434 241.573 178.805 241.573C179.283 241.573 179.688 241.475 180.021 241.28C180.353 241.084 180.643 240.823 180.892 240.496L181.712 241.148C181.542 241.407 181.324 241.653 181.061 241.888C180.797 242.122 180.472 242.312 180.086 242.459C179.706 242.605 179.254 242.679 178.731 242.679ZM183.419 241.814C183.419 241.585 183.49 241.392 183.631 241.236C183.778 241.075 183.988 240.994 184.261 240.994C184.535 240.994 184.742 241.075 184.884 241.236C185.03 241.392 185.104 241.585 185.104 241.814C185.104 242.039 185.03 242.229 184.884 242.386C184.742 242.542 184.535 242.62 184.261 242.62C183.988 242.62 183.778 242.542 183.631 242.386C183.49 242.229 183.419 242.039 183.419 241.814Z" fill="black"/>
<defs>
<filter id="filter0_d_212_33" x="0.973328" y="0" width="276.117" height="507.209" filterUnits="userSpaceOnUse" color-interpolation-filters="sRGB">
<feFlood flood-opacity="0" result="BackgroundImageFix"/>
<feColorMatrix in="SourceAlpha" type="matrix" values="0 0 0 0 0 0 0 0 0 0 0 0 0 0 0 0 0 0 127 0" result="hardAlpha"/>
<feOffset dx="-5" dy="20"/>
<feGaussianBlur stdDeviation="5"/>
<feComposite in2="hardAlpha" operator="out"/>
<feColorMatrix type="matrix" values="0 0 0 0 0 0 0 0 0 0 0 0 0 0 0 0 0 0 0.25 0"/>
<feBlend mode="normal" in2="BackgroundImageFix" result="effect1_dropShadow_212_33"/>
<feBlend mode="normal" in="SourceGraphic" in2="effect1_dropShadow_212_33" result="shape"/>
</filter>
<linearGradient id="paint0_linear_212_33" x1="32" y1="150.532" x2="32" y2="174.532" gradientUnits="userSpaceOnUse">
<stop stop-color="#9EEDB0"/>
<stop offset="1" stop-color="#58A76A"/>
</linearGradient>
</defs>
</svg>
